<svg xmlns="http://www.w3.org/2000/svg" width="15" height="14" fill="none" xmlns:v="https://vecta.io/nano"><path d="M4.333 0c.285 1.546 1.531 2.733 3.088 2.944L7.833 3l-.412.056C5.864 3.267 4.618 4.454 4.333 6c-.285-1.546-1.531-2.733-3.088-2.944L.833 3l.412-.056C2.803 2.733 4.048 1.546 4.333 0z" fill="url(#A)"/><path d="M6.333 8c.285 1.546 1.531 2.733 3.088 2.944l.412.056-.412.056c-1.557.211-2.803 1.399-3.088 2.944-.285-1.546-1.531-2.733-3.088-2.944L2.833 11l.412-.056C4.803 10.733 6.048 9.546 6.333 8z" fill="url(#B)"/><path d="M11.833 3a3.04 3.04 0 0 0 2.588 2.446l.412.054-.412.054A3.04 3.04 0 0 0 11.833 8a3.04 3.04 0 0 0-2.588-2.446L8.833 5.5l.412-.054A3.04 3.04 0 0 0 11.833 3z" fill="url(#C)"/><defs><linearGradient id="A" x1="7.833" y1="3" x2=".833" y2="3" gradientUnits="userSpaceOnUse"><stop stop-color="#7b4cff"/><stop offset=".995" stop-color="#0ea4c5"/></linearGradient><linearGradient id="B" x1="9.833" y1="11" x2="2.833" y2="11" gradientUnits="userSpaceOnUse"><stop stop-color="#7b4cff"/><stop offset=".995" stop-color="#0ea4c5"/></linearGradient><linearGradient id="C" x1="14.833" y1="5.5" x2="8.833" y2="5.5" gradientUnits="userSpaceOnUse"><stop stop-color="#7b4cff"/><stop offset=".995" stop-color="#0ea4c5"/></linearGradient></defs></svg>